<svg id="SvgjsSvg1110" width="100%" height="100%" xmlns="http://www.w3.org/2000/svg" version="1.1" xlink="http://www.w3.org/1999/xlink" xmlns:svgjs="http://svgjs.com/svgjs" preserveAspectRatio="xMidYMid meet" viewBox="0.00000503216142533347 3.4569464446576603e-7 300 72.49742889404297" overflow="visible"><defs id="SvgjsDefs1111"></defs><g id="SvgjsG1112" transform="scale(0.9666323164831846)" opacity="1"><g id="SvgjsG1113" class="iT26oKOY4u" transform="translate(-5.841661790207421, -4.166666666666667) scale(0.8333333333333334)" light-content="false" non-strokable="false" fill="#fff"><path d="M50.98 5c-2.521 0-5 .21-7.411.63C22.84 9.16 7.01 27.26 7.01 48.97c0 14.129 6.7 26.73 17.1 34.78-9.84.98-16.58 2.98-16.58 5.3 0 3.29 13.55 5.95 30.26 5.95 15.96 0 30.71-2.94 30.39-5.59A44.156 44.156 0 0 0 85.85 75.7a43.699 43.699 0 0 0 9.091-26.73C94.94 24.73 75.21 5 50.98 5zm20.17 77.08c-2.79.6-5.68.92-8.65.92-22.64 0-41-18.36-41-41 0-10 3.58-19.17 9.54-26.29a38.47 38.47 0 0 1 19.94-5.54c21.39 0 38.789 17.4 38.789 38.8.001 14-7.459 26.3-18.619 33.11z"></path></g><g id="SvgjsG1114" class="text" transform="translate(204.7558593368622, 56.25) scale(1)" light-content="false" fill="#fff"><path d="M-81.9 -7.2L-79.92 0L-70.98 0L-81.36 -37.5L-95.1 -37.5L-105.48 0L-96.54 0L-94.56 -7.2ZM-83.76 -13.86L-92.7 -13.86L-88.5 -29.04L-87.96 -29.04Z M-51.24 -7.38L-51.24 -15.42L-38.1 -15.42L-38.1 -22.08L-51.24 -22.08L-51.24 -30.12L-36.96 -30.12L-35.88 -37.5L-60.18 -37.5L-60.18 0L-35.94 0L-35.94 -7.38Z M-2.58 0L7.14 0L0.72 -13.44C2.32 -14.32 3.5 -15.65 4.26 -17.43C5.02 -19.21 5.4 -21.48 5.4 -24.24C5.4 -27.48 4.99 -30.06 4.17 -31.98C3.35 -33.9 2.05 -35.3 0.27 -36.18C-1.51 -37.06 -3.92 -37.5 -6.96 -37.5L-23.16 -37.5L-23.16 0L-14.22 0L-14.22 -12.06L-8.28 -12.06ZM-14.22 -18.78L-14.22 -30.12L-7.2 -30.12C-6 -30.12 -5.16 -29.94 -4.68 -29.58C-4.2 -29.22 -3.96 -28.56 -3.96 -27.6L-3.96 -21.3C-3.96 -20.34 -4.2 -19.68 -4.68 -19.32C-5.16 -18.96 -6 -18.78 -7.2 -18.78Z M27.9 -37.5L18.96 -37.5L18.96 0L27.9 0Z M62.34 -7.2L64.32 0L73.26 0L62.88 -37.5L49.14 -37.5L38.76 0L47.7 0L49.68 -7.2ZM60.48 -13.86L51.54 -13.86L55.74 -29.04L56.28 -29.04Z M84.06 -37.5L84.06 0L105.6 0L105.6 -7.38L93 -7.38L93 -37.5Z"></path></g></g></svg>
